<svg width="1024" height="1024" viewBox="0 0 1024 1024" fill="none" xmlns="http://www.w3.org/2000/svg">
<path d="M855 4H169C87.8141 4 22 69.8141 22 151V837C22 918.186 87.8141 984 169 984H855C936.186 984 1002 918.186 1002 837V151C1002 69.8141 936.186 4 855 4Z" fill="url(#paint0_linear_0_1)"/>
<path d="M362.984 728.528C362.984 740.816 359.912 752.08 353.768 762.32C347.624 772.56 339.432 780.752 329.192 786.896C318.952 793.04 307.688 796.112 295.4 796.112H197.096C184.808 796.112 173.373 793.04 162.792 786.896C152.552 780.752 144.36 772.56 138.216 762.32C132.072 752.08 129 740.816 129 728.528V713.168C129 706.683 131.219 701.221 135.656 696.784C140.435 692.005 146.067 689.616 152.552 689.616H166.888C173.032 689.616 178.323 692.005 182.76 696.784C187.539 701.221 189.928 706.683 189.928 713.168V728.528C189.928 730.235 190.611 731.941 191.976 733.648C193.683 735.013 195.389 735.696 197.096 735.696H295.4C297.107 735.696 298.643 735.013 300.008 733.648C301.373 731.941 302.056 730.235 302.056 728.528V681.936C302.056 678.181 300.349 675.792 296.936 674.768L174.056 628.688C160.403 623.909 149.48 615.547 141.288 603.6C133.096 591.653 129 578.512 129 564.176V518.096C129 505.467 132.072 494.032 138.216 483.792C144.36 473.552 152.552 465.36 162.792 459.216C173.373 453.072 184.808 450 197.096 450H295.4C307.688 450 318.952 453.072 329.192 459.216C339.432 465.36 347.624 473.552 353.768 483.792C359.912 494.032 362.984 505.467 362.984 518.096V531.92C362.984 538.405 360.595 543.867 355.816 548.304C351.379 552.741 345.917 554.96 339.432 554.96H325.608C319.123 554.96 313.491 552.741 308.712 548.304C304.275 543.867 302.056 538.405 302.056 531.92V518.096C302.056 513.317 299.837 510.928 295.4 510.928H197.096C195.389 510.928 193.683 511.611 191.976 512.976C190.611 514.341 189.928 516.048 189.928 518.096V564.176C189.928 568.272 191.635 570.832 195.048 571.856L318.44 617.936C331.752 622.715 342.504 631.077 350.696 643.024C358.888 654.971 362.984 667.941 362.984 681.936V728.528Z" fill="#F3F4F6"/>
<path d="M626.696 772.56C626.696 779.045 624.307 784.677 619.528 789.456C615.091 793.893 609.8 796.112 603.656 796.112H427.528C421.384 796.112 415.923 793.893 411.144 789.456C406.707 784.677 404.488 779.045 404.488 772.56V473.552C404.488 466.725 406.707 461.093 411.144 456.656C415.923 452.219 421.384 450 427.528 450H441.864C448.349 450 453.811 452.219 458.248 456.656C463.027 461.093 465.416 466.725 465.416 473.552V729.04C465.416 733.477 467.464 735.696 471.56 735.696H603.656C609.8 735.696 615.091 737.915 619.528 742.352C624.307 746.789 626.696 752.421 626.696 759.248V772.56Z" fill="#F3F4F6"/>
<path d="M895.328 728.528C895.328 740.816 892.256 752.08 886.112 762.32C879.968 772.56 871.776 780.752 861.536 786.896C851.296 793.04 840.032 796.112 827.744 796.112H735.584C723.296 796.112 711.861 793.04 701.28 786.896C691.04 780.752 682.848 772.56 676.704 762.32C670.56 752.08 667.488 740.816 667.488 728.528V518.096C667.488 505.467 670.56 494.032 676.704 483.792C682.848 473.552 691.04 465.36 701.28 459.216C711.861 453.072 723.296 450 735.584 450H827.744C840.032 450 851.296 453.072 861.536 459.216C871.776 465.36 879.968 473.552 886.112 483.792C892.256 494.032 895.328 505.467 895.328 518.096V531.92C895.328 538.405 893.109 543.867 888.672 548.304C884.235 552.741 878.603 554.96 871.776 554.96H857.952C851.467 554.96 845.835 552.741 841.056 548.304C836.619 543.867 834.4 538.405 834.4 531.92V518.096C834.4 513.317 832.181 510.928 827.744 510.928H735.584C731.147 510.928 728.928 513.317 728.928 518.096V728.528C728.928 730.235 729.611 731.941 730.976 733.648C732.341 735.013 733.877 735.696 735.584 735.696H827.744C829.451 735.696 830.987 735.013 832.352 733.648C833.717 731.941 834.4 730.235 834.4 728.528V713.168C834.4 706.683 836.619 701.221 841.056 696.784C845.835 692.005 851.467 689.616 857.952 689.616H871.776C878.603 689.616 884.235 692.005 888.672 696.784C893.109 701.221 895.328 706.683 895.328 713.168V728.528Z" fill="#F3F4F6"/>
<defs>
<linearGradient id="paint0_linear_0_1" x1="512" y1="4" x2="512" y2="984" gradientUnits="userSpaceOnUse">
<stop stop-color="#9BAFD9"/>
<stop offset="1" stop-color="#103783"/>
</linearGradient>
</defs>
</svg>
